<svg width="32" height="32" viewBox="0 0 32 32" fill="none" xmlns="http://www.w3.org/2000/svg">
<rect width="32" height="32" rx="16" fill="#D0DEFF"/>
<path d="M18.6667 11.3333C18.6667 12.0406 18.3857 12.7189 17.8856 13.219C17.3855 13.719 16.7072 14 16 14C15.2928 14 14.6145 13.719 14.1144 13.219C13.6143 12.7189 13.3333 12.0406 13.3333 11.3333C13.3333 10.6261 13.6143 9.94781 14.1144 9.44771C14.6145 8.94762 15.2928 8.66667 16 8.66667C16.7072 8.66667 17.3855 8.94762 17.8856 9.44771C18.3857 9.94781 18.6667 10.6261 18.6667 11.3333ZM10.6667 16.6667C9.95942 16.6667 9.28115 16.9476 8.78105 17.4477C8.28095 17.9478 8 18.6261 8 19.3333C8 20.0406 8.28095 20.7189 8.78105 21.2189C9.28115 21.719 9.95942 22 10.6667 22C11.3739 22 12.0522 21.719 12.5523 21.2189C13.0524 20.7189 13.3333 20.0406 13.3333 19.3333C13.3333 18.6261 13.0524 17.9478 12.5523 17.4477C12.0522 16.9476 11.3739 16.6667 10.6667 16.6667ZM21.3333 16.6667C20.6261 16.6667 19.9478 16.9476 19.4477 17.4477C18.9476 17.9478 18.6667 18.6261 18.6667 19.3333C18.6667 20.0406 18.9476 20.7189 19.4477 21.2189C19.9478 21.719 20.6261 22 21.3333 22C22.0406 22 22.7189 21.719 23.219 21.2189C23.719 20.7189 24 20.0406 24 19.3333C24 18.6261 23.719 17.9478 23.219 17.4477C22.7189 16.9476 22.0406 16.6667 21.3333 16.6667Z" fill="#0031A4"/>
</svg>
