<svg width="32" height="32" viewBox="0 0 32 32" fill="none" xmlns="http://www.w3.org/2000/svg">
<rect width="32" height="32" rx="16" fill="#D0DEFF"/>
<path d="M21.0002 12.6667H20.1668V11.8333C20.1668 9.53583 18.2977 7.66667 16.0002 7.66667C13.7027 7.66667 11.8335 9.53583 11.8335 11.8333V12.6667H11.0002C10.5581 12.6667 10.1342 12.8423 9.82165 13.1548C9.50909 13.4674 9.3335 13.8913 9.3335 14.3333V22.6667C9.3335 23.1087 9.50909 23.5326 9.82165 23.8452C10.1342 24.1577 10.5581 24.3333 11.0002 24.3333H21.0002C21.4422 24.3333 21.8661 24.1577 22.1787 23.8452C22.4912 23.5326 22.6668 23.1087 22.6668 22.6667V14.3333C22.6668 13.8913 22.4912 13.4674 22.1787 13.1548C21.8661 12.8423 21.4422 12.6667 21.0002 12.6667ZM13.5002 11.8333C13.5002 10.455 14.6218 9.33333 16.0002 9.33333C17.3785 9.33333 18.5002 10.455 18.5002 11.8333V12.6667H13.5002V11.8333ZM16.8335 19.1025V21H15.1668V19.1025C14.671 18.8142 14.3335 18.2825 14.3335 17.6667C14.3335 17.2246 14.5091 16.8007 14.8217 16.4882C15.1342 16.1756 15.5581 16 16.0002 16C16.4422 16 16.8661 16.1756 17.1787 16.4882C17.4912 16.8007 17.6668 17.2246 17.6668 17.6667C17.6668 18.2817 17.3293 18.8133 16.8335 19.1025Z" fill="#0031A4"/>
</svg>
