<svg width="32" height="32" viewBox="0 0 32 32" fill="none" xmlns="http://www.w3.org/2000/svg">
<rect width="32" height="32" rx="16" fill="#D0DEFF"/>
<path d="M8.91667 11.8333C8.91667 10.7283 9.35565 9.66846 10.1371 8.88705C10.9185 8.10565 11.9783 7.66667 13.0833 7.66667C14.1884 7.66667 15.2482 8.10565 16.0296 8.88705C16.811 9.66846 17.25 10.7283 17.25 11.8333C17.25 12.9384 16.811 13.9982 16.0296 14.7796C15.2482 15.561 14.1884 16 13.0833 16C11.9783 16 10.9185 15.561 10.1371 14.7796C9.35565 13.9982 8.91667 12.9384 8.91667 11.8333ZM10.1667 17.6667C9.0616 17.6667 8.00179 18.1057 7.22039 18.8871C6.43899 19.6685 6 20.7283 6 21.8333L6 23.5H20.1667V21.8333C20.1667 20.7283 19.7277 19.6685 18.9463 18.8871C18.1649 18.1057 17.1051 17.6667 16 17.6667H10.1667ZM26 23.5H21.8333V21.8333C21.8333 20.2008 21.1633 18.725 20.0833 17.6667H21.8333C22.3805 17.6667 22.9223 17.7744 23.4278 17.9838C23.9334 18.1932 24.3927 18.5001 24.7796 18.8871C25.1665 19.274 25.4734 19.7333 25.6828 20.2388C25.8922 20.7443 26 21.2862 26 21.8333V23.5ZM18.9167 16C18.408 16.0002 17.9035 15.9073 17.4283 15.7258C18.3889 14.6571 18.9191 13.2703 18.9167 11.8333C18.9189 10.3963 18.3883 9.00944 17.4275 7.94083C17.9984 7.72283 18.6102 7.63306 19.2196 7.6779C19.8291 7.72273 20.4212 7.90106 20.954 8.20025C21.4868 8.49944 21.9473 8.91217 22.3029 9.40919C22.6584 9.9062 22.9002 10.4753 23.0113 11.0762C23.1223 11.6771 23.0998 12.2951 22.9454 12.8864C22.7909 13.4776 22.5083 14.0276 22.1176 14.4975C21.7269 14.9673 21.2376 15.3455 20.6844 15.6051C20.1313 15.8648 19.5277 15.9996 18.9167 16Z" fill="#041235"/>
</svg>
