<svg width="32" height="32" viewBox="0 0 32 32" fill="none" xmlns="http://www.w3.org/2000/svg">
<rect width="32" height="32" rx="16" fill="#D0DEFF"/>
<path d="M16.6249 15.4187V11.0725C17.6812 11.2475 18.5524 11.7613 19.2637 12.6425L20.2362 11.8575C19.2862 10.6812 18.0724 9.99875 16.6249 9.81V7.875H15.3749V9.76375C13.1155 9.90125 11.6249 11.1762 11.6249 13.0262C11.6249 15.6975 13.5793 16.2263 15.3749 16.5006V20.9762C13.6749 20.8656 12.863 20.2887 12.1112 19.3575L11.1387 20.1425C12.2449 21.5131 13.4718 22.1225 15.3749 22.2281V24.125H16.6249V22.2219C18.9537 22.0319 20.3749 20.7675 20.3749 18.8219C20.3749 16.1912 18.4105 15.6875 16.6249 15.4187ZM12.8749 13.0262C12.8749 11.6806 14.1437 11.1175 15.3749 11.0181V15.2344C13.7687 14.97 12.8749 14.5825 12.8749 13.0262ZM16.6249 20.97V16.6844C18.2293 16.9437 19.1249 17.3119 19.1249 18.8219C19.1249 20.4069 17.7562 20.8631 16.6249 20.97Z" fill="#041235"/>
</svg>
